<svg width="25" height="26" viewBox="0 0 25 26" fill="none" xmlns="http://www.w3.org/2000/svg">
<path d="M6.17028 16.0885H8.2271V9.91801H6.17028V16.0885ZM11.3123 16.0885H13.3691V9.91801H11.3123V16.0885ZM16.4544 16.0885H18.5112V9.91801H16.4544V16.0885ZM4.11346 18.1453H20.568V7.8612H4.11346V18.1453ZM5.14187 22.2589V20.2021H4.11346C3.54783 20.2021 3.06362 20.0007 2.66083 19.5979C2.25804 19.1951 2.05664 18.7109 2.05664 18.1453V7.8612C2.05664 7.29557 2.25804 6.81136 2.66083 6.40857C3.06362 6.00577 3.54783 5.80438 4.11346 5.80438H5.14187V3.74756H7.19869V5.80438H11.3123V3.74756H13.3691V5.80438H17.4828V3.74756H19.5396V5.80438H20.568C21.1336 5.80438 21.6178 6.00577 22.0206 6.40857C22.4234 6.81136 22.6248 7.29557 22.6248 7.8612V18.1453C22.6248 18.7109 22.4234 19.1951 22.0206 19.5979C21.6178 20.0007 21.1336 20.2021 20.568 20.2021H19.5396V22.2589H17.4828V20.2021H13.3691V22.2589H11.3123V20.2021H7.19869V22.2589H5.14187Z" fill="#064C3C"/>
</svg>
