<svg width="25" height="26" viewBox="0 0 25 26" fill="none" xmlns="http://www.w3.org/2000/svg">
<path d="M5.14187 21.2301V19.1733H19.5396V21.2301H5.14187ZM5.14187 17.6307L3.83065 9.3777C3.79637 9.3777 3.7578 9.38198 3.71495 9.39055C3.6721 9.39912 3.63353 9.40341 3.59925 9.40341C3.17075 9.40341 2.80652 9.25343 2.50657 8.95348C2.20662 8.65353 2.05664 8.2893 2.05664 7.8608C2.05664 7.43229 2.20662 7.06806 2.50657 6.76811C2.80652 6.46816 3.17075 6.31818 3.59925 6.31818C4.02776 6.31818 4.39199 6.46816 4.69194 6.76811C4.99189 7.06806 5.14187 7.43229 5.14187 7.8608C5.14187 7.98078 5.12901 8.09219 5.1033 8.19503C5.07759 8.29787 5.0476 8.39214 5.01332 8.47784L8.2271 9.91761L11.4409 5.52116C11.2523 5.38404 11.0981 5.20407 10.9781 4.98125C10.8581 4.75843 10.7981 4.51847 10.7981 4.26136C10.7981 3.83286 10.9481 3.46863 11.248 3.16868C11.548 2.86873 11.9122 2.71875 12.3407 2.71875C12.7692 2.71875 13.1335 2.86873 13.4334 3.16868C13.7334 3.46863 13.8833 3.83286 13.8833 4.26136C13.8833 4.51847 13.8234 4.75843 13.7034 4.98125C13.5834 5.20407 13.4291 5.38404 13.2406 5.52116L16.4544 9.91761L19.6681 8.47784C19.6339 8.39214 19.6039 8.29787 19.5782 8.19503C19.5525 8.09219 19.5396 7.98078 19.5396 7.8608C19.5396 7.43229 19.6896 7.06806 19.9895 6.76811C20.2895 6.46816 20.6537 6.31818 21.0822 6.31818C21.5107 6.31818 21.8749 6.46816 22.1749 6.76811C22.4748 7.06806 22.6248 7.43229 22.6248 7.8608C22.6248 8.2893 22.4748 8.65353 22.1749 8.95348C21.8749 9.25343 21.5107 9.40341 21.0822 9.40341C21.0479 9.40341 21.0094 9.39912 20.9665 9.39055C20.9237 9.38198 20.8851 9.3777 20.8508 9.3777L19.5396 17.6307H5.14187ZM6.89016 15.5739H17.7913L18.4598 11.2803L15.7602 12.4629L12.3407 7.75795L8.92127 12.4629L6.2217 11.2803L6.89016 15.5739Z" fill="#064C3C"/>
</svg>
