<svg width="159" height="40" viewBox="0 0 159 40" fill="none" xmlns="http://www.w3.org/2000/svg">
<path d="M22.8373 2.04252L1.11084 36.2296C0.461075 37.2521 1.05311 37.8272 1.43035 37.9869H9.57777C10.4724 37.8591 11.2286 37.1881 11.4948 36.8686L28.4287 10.3497C28.8121 9.71065 28.5884 9.12489 28.4287 8.91189L24.2751 2.04252C23.7639 1.53131 23.1035 1.82952 22.8373 2.04252Z" fill="url(#paint0_linear_2133_234)"/>
<path d="M46.96 36.0695L32.1029 13.3846C30.9527 12.6178 30.0261 13.3846 29.7066 13.8639L26.831 18.976C26.192 20.1262 26.3518 20.9463 26.5115 21.2125L37.6943 38.1463H46.0014C47.4073 37.6351 47.2262 36.5488 46.96 36.0695Z" fill="url(#paint1_linear_2133_234)"/>
<path d="M24.075 26.8691C27.1263 26.8694 29.6002 29.3432 29.6003 32.3945C29.6003 35.446 27.1264 37.9197 24.075 37.9199C23.0437 37.9199 22.0788 37.6364 21.2527 37.1445L15.9128 37.042L18.5759 32.9434C18.5581 32.7629 18.5496 32.5796 18.5496 32.3945C18.5497 29.3431 21.0234 26.8691 24.075 26.8691Z" fill="url(#paint2_linear_2133_234)"/>
<path d="M59.6995 13.9001V26.0067" stroke="white" stroke-width="0.448393"/>
<path d="M72.9572 2.89526H75.8659C76.6804 2.89526 77.322 3.1007 77.7905 3.51158C78.2663 3.91526 78.5042 4.49194 78.5042 5.24162C78.5042 6.00572 78.2699 6.58601 77.8013 6.98248C77.3328 7.37174 76.6876 7.56636 75.8659 7.56636H74.0601V10.4534H72.9572V2.89526ZM75.7469 6.64728C76.2515 6.64728 76.6516 6.54276 76.9471 6.33371C77.2427 6.12467 77.3905 5.76064 77.3905 5.24162C77.3905 4.72261 77.2427 4.35858 76.9471 4.14954C76.6516 3.93328 76.2515 3.82515 75.7469 3.82515H74.0601V6.64728H75.7469ZM80.1103 4.24685C79.9301 4.24685 79.7787 4.18558 79.6561 4.06303C79.5336 3.94049 79.4723 3.78911 79.4723 3.6089C79.4723 3.42869 79.5336 3.27731 79.6561 3.15476C79.7787 3.03222 79.9301 2.97095 80.1103 2.97095C80.2977 2.97095 80.4527 3.03222 80.5752 3.15476C80.705 3.27731 80.7699 3.42869 80.7699 3.6089C80.7699 3.78911 80.705 3.94049 80.5752 4.06303C80.4527 4.18558 80.2977 4.24685 80.1103 4.24685ZM79.5588 5.26325H80.6725V10.4534H79.5588V5.26325ZM81.9593 5.26325H83.1162L84.6408 8.99365L86.1654 5.26325H87.3224L85.1166 10.4534H84.1651L81.9593 5.26325ZM90.5393 10.6156C89.9554 10.6156 89.44 10.5074 88.993 10.2912C88.5533 10.0677 88.2073 9.75054 87.955 9.33966C87.7099 8.92156 87.5874 8.43138 87.5874 7.86912C87.5874 7.31407 87.7099 6.82749 87.955 6.4094C88.2001 5.99131 88.5461 5.67053 88.993 5.44707C89.44 5.21639 89.9554 5.10106 90.5393 5.10106C91.1231 5.10106 91.6386 5.21639 92.0855 5.44707C92.5324 5.67053 92.8784 5.99131 93.1235 6.4094C93.3758 6.82749 93.502 7.31407 93.502 7.86912C93.502 8.43138 93.3758 8.92156 93.1235 9.33966C92.8784 9.75054 92.5324 10.0677 92.0855 10.2912C91.6386 10.5074 91.1231 10.6156 90.5393 10.6156ZM90.5393 9.75054C91.1015 9.75054 91.5485 9.57754 91.88 9.23153C92.2116 8.88552 92.3774 8.43138 92.3774 7.86912C92.3774 7.28523 92.2116 6.82389 91.88 6.48509C91.5485 6.14629 91.1015 5.97689 90.5393 5.97689C89.977 5.97689 89.5301 6.14629 89.1985 6.48509C88.8669 6.82389 88.7011 7.28523 88.7011 7.86912C88.7011 8.43138 88.8669 8.88552 89.1985 9.23153C89.5301 9.57754 89.977 9.75054 90.5393 9.75054ZM96.5303 10.6156C96.0041 10.6156 95.5968 10.4642 95.3084 10.1614C95.0273 9.85867 94.8867 9.42976 94.8867 8.87471V6.10664H94.0974V5.26325H94.8867V3.70621H95.9896V5.26325H97.2656V6.10664H95.9896V8.79902C95.9896 9.14503 96.0545 9.39012 96.1843 9.53429C96.3212 9.67846 96.5663 9.75054 96.9195 9.75054C97.1286 9.75054 97.3376 9.70369 97.5467 9.60997V10.475C97.2728 10.5687 96.934 10.6156 96.5303 10.6156ZM100.276 10.6156C99.6484 10.6156 99.1438 10.457 98.7618 10.1398C98.3869 9.81542 98.1995 9.3793 98.1995 8.83146C98.1995 8.25478 98.3797 7.81145 98.7401 7.50149C99.1078 7.18431 99.6268 7.02573 100.297 7.02573C101.011 7.02573 101.616 7.1699 102.114 7.45824V7.18792C102.114 6.77703 101.988 6.47428 101.735 6.27965C101.49 6.07781 101.101 5.97689 100.567 5.97689C100.25 5.97689 99.9404 6.00933 99.6376 6.07421C99.342 6.13187 99.0753 6.21477 98.8375 6.3229V5.43625C99.0537 5.33533 99.3348 5.25604 99.6808 5.19837C100.027 5.1335 100.362 5.10106 100.686 5.10106C101.544 5.10106 102.179 5.29208 102.589 5.67413C103.008 6.04898 103.217 6.57159 103.217 7.24198V10.4534H102.189V9.86948C101.966 10.1146 101.699 10.302 101.389 10.4317C101.087 10.5543 100.715 10.6156 100.276 10.6156ZM100.546 9.78298C100.892 9.78298 101.205 9.7145 101.487 9.57754C101.768 9.44057 101.977 9.24955 102.114 9.00446V8.30163C101.645 7.99887 101.123 7.8475 100.546 7.8475C100.128 7.8475 99.8142 7.93039 99.6052 8.09619C99.4033 8.25478 99.3024 8.49987 99.3024 8.83146C99.3024 9.4658 99.7169 9.78298 100.546 9.78298ZM104.572 2.46275H105.664V10.4534H104.572V2.46275Z" fill="white"/>
<path d="M72.9572 15.8953H75.3901C76.2047 15.8953 76.9111 16.0466 77.5094 16.3494C78.1077 16.6521 78.5654 17.0847 78.8826 17.6469C79.207 18.2092 79.3692 18.8724 79.3692 19.6365C79.3692 20.8907 79.0052 21.8423 78.2771 22.491C77.5562 23.1326 76.5435 23.4534 75.2387 23.4534H72.9572V15.8953ZM75.2279 22.5343C76.2371 22.5343 76.994 22.2856 77.4986 21.7882C78.0032 21.2908 78.2555 20.5736 78.2555 19.6365C78.2555 18.7714 78.0068 18.0866 77.5094 17.582C77.0192 17.0775 76.3164 16.8252 75.4009 16.8252H74.0601V22.5343H75.2279ZM83.4145 23.6156C82.4558 23.6156 81.7025 23.3777 81.1546 22.9019C80.614 22.4189 80.3437 21.7414 80.3437 20.8691C80.3437 20.0185 80.5852 19.3445 81.0681 18.8471C81.5583 18.3498 82.2539 18.1011 83.155 18.1011C83.7533 18.1011 84.2615 18.2164 84.6796 18.4471C85.0977 18.6705 85.4113 18.9841 85.6203 19.3878C85.8366 19.7842 85.9447 20.2384 85.9447 20.7502V21.2908H81.3817C81.4177 21.781 81.6232 22.1486 81.998 22.3937C82.3801 22.6316 82.8955 22.7505 83.5443 22.7505C83.8758 22.7505 84.211 22.7217 84.5498 22.664C84.8886 22.5992 85.1878 22.5163 85.4473 22.4153V23.2912C85.2166 23.3849 84.9103 23.4606 84.5282 23.5182C84.1534 23.5831 83.7821 23.6156 83.4145 23.6156ZM84.9175 20.5231C84.9031 20.0329 84.7409 19.6545 84.4309 19.3878C84.1281 19.1139 83.6956 18.9769 83.1334 18.9769C82.5855 18.9769 82.1602 19.1175 81.8575 19.3986C81.5547 19.6797 81.3961 20.0546 81.3817 20.5231H84.9175ZM86.4892 18.2632H87.6462L89.1708 21.9936L90.6954 18.2632H91.8523L89.6465 23.4534H88.695L86.4892 18.2632ZM95.4627 23.6156C94.504 23.6156 93.7507 23.3777 93.2028 22.9019C92.6622 22.4189 92.3919 21.7414 92.3919 20.8691C92.3919 20.0185 92.6334 19.3445 93.1163 18.8471C93.6065 18.3498 94.3021 18.1011 95.2032 18.1011C95.8015 18.1011 96.3097 18.2164 96.7278 18.4471C97.1459 18.6705 97.4594 18.9841 97.6685 19.3878C97.8847 19.7842 97.9929 20.2384 97.9929 20.7502V21.2908H93.4299C93.4659 21.781 93.6714 22.1486 94.0462 22.3937C94.4283 22.6316 94.9437 22.7505 95.5924 22.7505C95.924 22.7505 96.2592 22.7217 96.598 22.664C96.9368 22.5992 97.236 22.5163 97.4955 22.4153V23.2912C97.2648 23.3849 96.9585 23.4606 96.5764 23.5182C96.2016 23.5831 95.8303 23.6156 95.4627 23.6156ZM96.9657 20.5231C96.9512 20.0329 96.7891 19.6545 96.4791 19.3878C96.1763 19.1139 95.7438 18.9769 95.1816 18.9769C94.6337 18.9769 94.2084 19.1175 93.9057 19.3986C93.6029 19.6797 93.4443 20.0546 93.4299 20.5231H96.9657ZM99.1866 15.4627H100.279V23.4534H99.1866V15.4627ZM104.425 23.6156C103.841 23.6156 103.325 23.5074 102.879 23.2912C102.439 23.0677 102.093 22.7505 101.841 22.3397C101.595 21.9216 101.473 21.4314 101.473 20.8691C101.473 20.3141 101.595 19.8275 101.841 19.4094C102.086 18.9913 102.432 18.6705 102.879 18.4471C103.325 18.2164 103.841 18.1011 104.425 18.1011C105.009 18.1011 105.524 18.2164 105.971 18.4471C106.418 18.6705 106.764 18.9913 107.009 19.4094C107.261 19.8275 107.387 20.3141 107.387 20.8691C107.387 21.4314 107.261 21.9216 107.009 22.3397C106.764 22.7505 106.418 23.0677 105.971 23.2912C105.524 23.5074 105.009 23.6156 104.425 23.6156ZM104.425 22.7505C104.987 22.7505 105.434 22.5775 105.766 22.2315C106.097 21.8855 106.263 21.4314 106.263 20.8691C106.263 20.2852 106.097 19.8239 105.766 19.4851C105.434 19.1463 104.987 18.9769 104.425 18.9769C103.863 18.9769 103.416 19.1463 103.084 19.4851C102.752 19.8239 102.587 20.2852 102.587 20.8691C102.587 21.4314 102.752 21.8855 103.084 22.2315C103.416 22.5775 103.863 22.7505 104.425 22.7505ZM108.574 18.2632H109.633V19.031C110.167 18.411 110.888 18.1011 111.796 18.1011C112.315 18.1011 112.78 18.2164 113.191 18.4471C113.609 18.6777 113.933 19.0021 114.164 19.4202C114.402 19.8311 114.521 20.3105 114.521 20.8583C114.521 21.3989 114.402 21.8783 114.164 22.2964C113.933 22.7145 113.613 23.0389 113.202 23.2696C112.791 23.5002 112.322 23.6156 111.796 23.6156C111.364 23.6156 110.96 23.5435 110.585 23.3993C110.21 23.2551 109.904 23.0425 109.666 22.7614V25.8214H108.574V18.2632ZM111.547 22.7505C111.901 22.7505 112.218 22.6749 112.499 22.5235C112.787 22.3649 113.011 22.1414 113.169 21.8531C113.335 21.5647 113.418 21.2332 113.418 20.8583C113.418 20.4835 113.335 20.1555 113.169 19.8743C113.011 19.586 112.787 19.3661 112.499 19.2148C112.218 19.0562 111.901 18.9769 111.547 18.9769C111.108 18.9769 110.718 19.0922 110.38 19.3229C110.048 19.5536 109.81 19.8707 109.666 20.2744V21.4422C109.788 21.8387 110.023 22.1558 110.369 22.3937C110.715 22.6316 111.108 22.7505 111.547 22.7505ZM115.712 18.2632H116.75V19.0093C116.995 18.7066 117.273 18.4795 117.583 18.3281C117.893 18.1767 118.213 18.1011 118.545 18.1011C118.963 18.1011 119.295 18.1731 119.54 18.3173C119.785 18.4543 119.965 18.6669 120.08 18.9553C120.311 18.6741 120.592 18.4615 120.924 18.3173C121.262 18.1731 121.601 18.1011 121.94 18.1011C122.574 18.1011 123.032 18.2632 123.313 18.5876C123.594 18.9048 123.735 19.377 123.735 20.0041V23.4534H122.675V20.1447C122.675 19.7194 122.596 19.4202 122.437 19.2472C122.279 19.067 122.009 18.9769 121.627 18.9769C121.079 18.9769 120.632 19.2148 120.286 19.6905C120.3 19.7987 120.307 19.9753 120.307 20.2204V23.4534H119.248V20.1447C119.248 19.7194 119.176 19.4202 119.031 19.2472C118.887 19.067 118.628 18.9769 118.253 18.9769C117.705 18.9769 117.215 19.2869 116.782 19.9068V23.4534H115.712V18.2632ZM127.943 23.6156C126.984 23.6156 126.231 23.3777 125.683 22.9019C125.143 22.4189 124.872 21.7414 124.872 20.8691C124.872 20.0185 125.114 19.3445 125.597 18.8471C126.087 18.3498 126.783 18.1011 127.684 18.1011C128.282 18.1011 128.79 18.2164 129.208 18.4471C129.626 18.6705 129.94 18.9841 130.149 19.3878C130.365 19.7842 130.473 20.2384 130.473 20.7502V21.2908H125.91C125.946 21.781 126.152 22.1486 126.527 22.3937C126.909 22.6316 127.424 22.7505 128.073 22.7505C128.405 22.7505 128.74 22.7217 129.079 22.664C129.417 22.5992 129.716 22.5163 129.976 22.4153V23.2912C129.745 23.3849 129.439 23.4606 129.057 23.5182C128.682 23.5831 128.311 23.6156 127.943 23.6156ZM129.446 20.5231C129.432 20.0329 129.27 19.6545 128.96 19.3878C128.657 19.1139 128.224 18.9769 127.662 18.9769C127.114 18.9769 126.689 19.1175 126.386 19.3986C126.083 19.6797 125.925 20.0546 125.91 20.5231H129.446ZM131.667 18.2632H132.727V19.0093C132.972 18.6994 133.271 18.4723 133.624 18.3281C133.985 18.1767 134.359 18.1011 134.749 18.1011C135.441 18.1011 135.956 18.2849 136.295 18.6525C136.634 19.0201 136.803 19.5139 136.803 20.1339V23.4534H135.711V20.242C135.711 19.3986 135.307 18.9769 134.5 18.9769C134.154 18.9769 133.83 19.0598 133.527 19.2256C133.231 19.3842 132.975 19.6293 132.759 19.9609V23.4534H131.667V18.2632ZM140.151 23.6156C139.625 23.6156 139.217 23.4642 138.929 23.1614C138.648 22.8587 138.507 22.4298 138.507 21.8747V19.1066H137.718V18.2632H138.507V16.7062H139.61V18.2632H140.886V19.1066H139.61V21.799C139.61 22.145 139.675 22.3901 139.805 22.5343C139.942 22.6785 140.187 22.7505 140.54 22.7505C140.749 22.7505 140.958 22.7037 141.167 22.61V23.475C140.893 23.5687 140.555 23.6156 140.151 23.6156Z" fill="#E4B800"/>
<path d="M72.9572 28.8953H75.8659C76.6804 28.8953 77.322 29.1007 77.7905 29.5116C78.2663 29.9153 78.5042 30.4919 78.5042 31.2416C78.5042 32.0057 78.2699 32.586 77.8013 32.9825C77.3328 33.3717 76.6876 33.5664 75.8659 33.5664H74.0601V36.4534H72.9572V28.8953ZM75.7469 32.6473C76.2515 32.6473 76.6516 32.5428 76.9471 32.3337C77.2427 32.1247 77.3905 31.7606 77.3905 31.2416C77.3905 30.7226 77.2427 30.3586 76.9471 30.1495C76.6516 29.9333 76.2515 29.8252 75.7469 29.8252H74.0601V32.6473H75.7469ZM80.7408 36.6156C80.1137 36.6156 79.6091 36.457 79.227 36.1398C78.8522 35.8154 78.6647 35.3793 78.6647 34.8315C78.6647 34.2548 78.845 33.8115 79.2054 33.5015C79.573 33.1843 80.092 33.0257 80.7624 33.0257C81.4761 33.0257 82.0816 33.1699 82.579 33.4582V33.1879C82.579 32.777 82.4528 32.4743 82.2005 32.2796C81.9554 32.0778 81.5662 31.9769 81.0327 31.9769C80.7156 31.9769 80.4056 32.0093 80.1028 32.0742C79.8073 32.1319 79.5406 32.2148 79.3027 32.3229V31.4363C79.519 31.3353 79.8001 31.256 80.1461 31.1984C80.4921 31.1335 80.8273 31.1011 81.1517 31.1011C82.0095 31.1011 82.6438 31.2921 83.0547 31.6741C83.4728 32.049 83.6819 32.5716 83.6819 33.242V36.4534H82.6547V35.8695C82.4312 36.1146 82.1645 36.302 81.8545 36.4317C81.5518 36.5543 81.1805 36.6156 80.7408 36.6156ZM81.0111 35.783C81.3571 35.783 81.6707 35.7145 81.9518 35.5775C82.233 35.4406 82.442 35.2495 82.579 35.0045V34.3016C82.1104 33.9989 81.5878 33.8475 81.0111 33.8475C80.593 33.8475 80.2795 33.9304 80.0704 34.0962C79.8686 34.2548 79.7677 34.4999 79.7677 34.8315C79.7677 35.4658 80.1821 35.783 81.0111 35.783ZM85.0371 31.2632H86.0967V32.1931C86.313 31.876 86.6158 31.6417 87.005 31.4903C87.4015 31.3389 87.8592 31.2632 88.3782 31.2632V32.1175C87.8232 32.1175 87.3474 32.2076 86.9509 32.3878C86.5545 32.568 86.2806 32.8527 86.1292 33.242V36.4534H85.0371V31.2632ZM91.3562 36.6156C90.83 36.6156 90.4227 36.4642 90.1344 36.1614C89.8532 35.8587 89.7127 35.4298 89.7127 34.8747V32.1066H88.9233V31.2632H89.7127V29.7062H90.8156V31.2632H92.0915V32.1066H90.8156V34.799C90.8156 35.145 90.8805 35.3901 91.0102 35.5343C91.1472 35.6785 91.3923 35.7505 91.7455 35.7505C91.9545 35.7505 92.1636 35.7037 92.3726 35.61V36.475C92.0987 36.5687 91.7599 36.6156 91.3562 36.6156ZM93.4001 31.2632H94.4597V32.0093C94.7048 31.6994 95.004 31.4723 95.3572 31.3281C95.7176 31.1767 96.0924 31.1011 96.4817 31.1011C97.1737 31.1011 97.6891 31.2849 98.0279 31.6525C98.3667 32.0201 98.5361 32.5139 98.5361 33.1339V36.4534H97.444V33.242C97.444 32.3986 97.0404 31.9769 96.233 31.9769C95.887 31.9769 95.5626 32.0598 95.2599 32.2256C94.9643 32.3842 94.7084 32.6293 94.4922 32.9609V36.4534H93.4001V31.2632ZM102.738 36.6156C101.779 36.6156 101.026 36.3777 100.478 35.9019C99.9376 35.4189 99.6672 34.7414 99.6672 33.8691C99.6672 33.0185 99.9087 32.3445 100.392 31.8471C100.882 31.3498 101.577 31.1011 102.479 31.1011C103.077 31.1011 103.585 31.2164 104.003 31.4471C104.421 31.6705 104.735 31.9841 104.944 32.3878C105.16 32.7842 105.268 33.2384 105.268 33.7502V34.2908H100.705C100.741 34.781 100.947 35.1486 101.322 35.3937C101.704 35.6316 102.219 35.7505 102.868 35.7505C103.199 35.7505 103.535 35.7217 103.873 35.664C104.212 35.5992 104.511 35.5163 104.771 35.4153V36.2912C104.54 36.3849 104.234 36.4606 103.852 36.5182C103.477 36.5831 103.106 36.6156 102.738 36.6156ZM104.241 33.5231C104.227 33.0329 104.064 32.6545 103.754 32.3878C103.452 32.1139 103.019 31.9769 102.457 31.9769C101.909 31.9769 101.484 32.1175 101.181 32.3986C100.878 32.6797 100.72 33.0546 100.705 33.5231H104.241ZM106.462 31.2632H107.522V32.1931C107.738 31.876 108.041 31.6417 108.43 31.4903C108.826 31.3389 109.284 31.2632 109.803 31.2632V32.1175C109.248 32.1175 108.772 32.2076 108.376 32.3878C107.979 32.568 107.705 32.8527 107.554 33.242V36.4534H106.462V31.2632ZM112.536 36.6156C112.176 36.6156 111.794 36.5687 111.39 36.475C110.986 36.3885 110.669 36.2696 110.439 36.1182V35.1883C110.72 35.3541 111.044 35.491 111.412 35.5992C111.779 35.7001 112.136 35.7505 112.482 35.7505C112.871 35.7505 113.156 35.7037 113.336 35.61C113.517 35.5163 113.607 35.3649 113.607 35.1558C113.607 34.9973 113.563 34.8711 113.477 34.7774C113.398 34.6765 113.257 34.5864 113.055 34.5071C112.861 34.4278 112.565 34.3341 112.169 34.2259C111.743 34.1034 111.404 33.9809 111.152 33.8583C110.907 33.7286 110.72 33.5664 110.59 33.3717C110.467 33.1771 110.406 32.9248 110.406 32.6148C110.406 32.1175 110.601 31.7426 110.99 31.4903C111.386 31.2308 111.916 31.1011 112.579 31.1011C112.925 31.1011 113.264 31.1335 113.596 31.1984C113.927 31.2632 114.194 31.3534 114.396 31.4687V32.377C114.187 32.2544 113.927 32.1571 113.617 32.085C113.315 32.0129 113.005 31.9769 112.688 31.9769C112.306 31.9769 112.014 32.0237 111.812 32.1175C111.61 32.2112 111.509 32.377 111.509 32.6148C111.509 32.7662 111.552 32.8888 111.639 32.9825C111.725 33.0762 111.862 33.1591 112.05 33.2312C112.244 33.296 112.551 33.3825 112.969 33.4907C113.625 33.6709 114.079 33.8835 114.331 34.1286C114.591 34.3737 114.72 34.7125 114.72 35.145C114.72 35.592 114.537 35.9488 114.169 36.2155C113.801 36.4822 113.257 36.6156 112.536 36.6156ZM119.915 28.8953H121.017V35.5343H124.845V36.4534H119.915V28.8953ZM126.455 30.2469C126.275 30.2469 126.124 30.1856 126.001 30.063C125.878 29.9405 125.817 29.7891 125.817 29.6089C125.817 29.4287 125.878 29.2773 126.001 29.1548C126.124 29.0322 126.275 28.9709 126.455 28.9709C126.643 28.9709 126.798 29.0322 126.92 29.1548C127.05 29.2773 127.115 29.4287 127.115 29.6089C127.115 29.7891 127.05 29.9405 126.92 30.063C126.798 30.1856 126.643 30.2469 126.455 30.2469ZM125.904 31.2632H127.017V36.4534H125.904V31.2632ZM128.52 31.2632H129.558V32.0093C129.804 31.7066 130.081 31.4795 130.391 31.3281C130.701 31.1767 131.022 31.1011 131.353 31.1011C131.771 31.1011 132.103 31.1731 132.348 31.3173C132.593 31.4543 132.773 31.6669 132.889 31.9553C133.119 31.6741 133.401 31.4615 133.732 31.3173C134.071 31.1731 134.41 31.1011 134.749 31.1011C135.383 31.1011 135.841 31.2632 136.122 31.5876C136.403 31.9048 136.543 32.377 136.543 33.0041V36.4534H135.484V33.1447C135.484 32.7194 135.405 32.4202 135.246 32.2472C135.087 32.067 134.817 31.9769 134.435 31.9769C133.887 31.9769 133.44 32.2148 133.094 32.6905C133.109 32.7987 133.116 32.9753 133.116 33.2204V36.4534H132.056V33.1447C132.056 32.7194 131.984 32.4202 131.84 32.2472C131.696 32.067 131.436 31.9769 131.061 31.9769C130.514 31.9769 130.023 32.2869 129.591 32.9068V36.4534H128.52V31.2632ZM138.535 30.2469C138.355 30.2469 138.203 30.1856 138.081 30.063C137.958 29.9405 137.897 29.7891 137.897 29.6089C137.897 29.4287 137.958 29.2773 138.081 29.1548C138.203 29.0322 138.355 28.9709 138.535 28.9709C138.722 28.9709 138.877 29.0322 139 29.1548C139.13 29.2773 139.195 29.4287 139.195 29.6089C139.195 29.7891 139.13 29.9405 139 30.063C138.877 30.1856 138.722 30.2469 138.535 30.2469ZM137.984 31.2632H139.097V36.4534H137.984V31.2632ZM142.601 36.6156C142.074 36.6156 141.667 36.4642 141.379 36.1614C141.098 35.8587 140.957 35.4298 140.957 34.8747V32.1066H140.168V31.2632H140.957V29.7062H142.06V31.2632H143.336V32.1066H142.06V34.799C142.06 35.145 142.125 35.3901 142.255 35.5343C142.392 35.6785 142.637 35.7505 142.99 35.7505C143.199 35.7505 143.408 35.7037 143.617 35.61V36.475C143.343 36.5687 143.004 36.6156 142.601 36.6156ZM147.499 36.6156C146.54 36.6156 145.787 36.3777 145.239 35.9019C144.699 35.4189 144.428 34.7414 144.428 33.8691C144.428 33.0185 144.67 32.3445 145.153 31.8471C145.643 31.3498 146.338 31.1011 147.24 31.1011C147.838 31.1011 148.346 31.2164 148.764 31.4471C149.182 31.6705 149.496 31.9841 149.705 32.3878C149.921 32.7842 150.029 33.2384 150.029 33.7502V34.2908H145.466C145.502 34.781 145.708 35.1486 146.083 35.3937C146.465 35.6316 146.98 35.7505 147.629 35.7505C147.96 35.7505 148.296 35.7217 148.634 35.664C148.973 35.5992 149.272 35.5163 149.532 35.4153V36.2912C149.301 36.3849 148.995 36.4606 148.613 36.5182C148.238 36.5831 147.867 36.6156 147.499 36.6156ZM149.002 33.5231C148.988 33.0329 148.825 32.6545 148.515 32.3878C148.213 32.1139 147.78 31.9769 147.218 31.9769C146.67 31.9769 146.245 32.1175 145.942 32.3986C145.639 32.6797 145.481 33.0546 145.466 33.5231H149.002ZM153.731 36.6156C153.212 36.6156 152.744 36.5038 152.326 36.2804C151.915 36.0497 151.591 35.7289 151.353 35.318C151.122 34.8999 151.007 34.417 151.007 33.8691C151.007 33.3285 151.122 32.8491 151.353 32.431C151.591 32.0129 151.915 31.6886 152.326 31.4579C152.744 31.22 153.212 31.1011 153.731 31.1011C154.669 31.1011 155.379 31.3858 155.862 31.9553V28.4627H156.954V36.4534H155.894V35.6965C155.606 36.0137 155.289 36.2479 154.943 36.3993C154.604 36.5435 154.2 36.6156 153.731 36.6156ZM153.98 35.7505C154.427 35.7505 154.816 35.6352 155.148 35.4045C155.487 35.1667 155.725 34.8495 155.862 34.453V33.2852C155.739 32.8888 155.505 32.5716 155.159 32.3337C154.82 32.0958 154.427 31.9769 153.98 31.9769C153.627 31.9769 153.306 32.0562 153.018 32.2148C152.737 32.3734 152.513 32.5968 152.347 32.8852C152.189 33.1735 152.11 33.5015 152.11 33.8691C152.11 34.2368 152.189 34.5647 152.347 34.8531C152.513 35.1414 152.737 35.3649 153.018 35.5235C153.306 35.6749 153.627 35.7505 153.98 35.7505Z" fill="#009981"/>
<defs>
<linearGradient id="paint0_linear_2133_234" x1="14.7306" y1="1.76025" x2="14.7306" y2="37.9869" gradientUnits="userSpaceOnUse">
<stop stop-color="#009981"/>
<stop offset="1" stop-color="#026757"/>
</linearGradient>
<linearGradient id="paint1_linear_2133_234" x1="36.7566" y1="13.0593" x2="36.7566" y2="38.1463" gradientUnits="userSpaceOnUse">
<stop stop-color="#E4B800"/>
<stop offset="1" stop-color="#7E6600"/>
</linearGradient>
<linearGradient id="paint2_linear_2133_234" x1="22.7566" y1="26.8691" x2="22.7566" y2="37.9199" gradientUnits="userSpaceOnUse">
<stop stop-color="#005A92"/>
<stop offset="1" stop-color="#004F81"/>
</linearGradient>
</defs>
</svg>
