<svg width="52" height="42" viewBox="0 0 52 42" fill="none" xmlns="http://www.w3.org/2000/svg">
<path d="M24.5505 1.02764L0.323423 39.1495C-0.401128 40.2896 0.259047 40.9309 0.679703 41.109H9.76484C10.7624 40.9665 11.6056 40.2183 11.9025 39.8621L30.7854 10.2909C31.2129 9.57833 30.9635 8.92516 30.7854 8.68764L26.1537 1.02764C25.5837 0.457596 24.8474 0.790123 24.5505 1.02764Z" fill="url(#paint0_linear_306_1172)"/>
<path d="M51.4503 38.9713L34.8832 13.6755C33.6006 12.8204 32.5674 13.6755 32.2112 14.2099L29.0046 19.9103C28.2921 21.193 28.4702 22.1074 28.6483 22.4043L41.1181 41.2871H50.3814C51.9491 40.717 51.7472 39.5057 51.4503 38.9713Z" fill="url(#paint1_linear_306_1172)"/>
<path d="M25.9309 28.7127C29.3337 28.7127 32.0919 31.4711 32.092 34.8738C32.092 38.2767 29.3337 41.035 25.9309 41.035C24.7795 41.035 23.7025 40.7185 22.7805 40.1688L16.8293 40.0555L19.7991 35.4852C19.7793 35.2842 19.7698 35.08 19.7698 34.8738C19.7699 31.4711 22.5282 28.7127 25.9309 28.7127Z" fill="url(#paint2_linear_306_1172)"/>
<defs>
<linearGradient id="paint0_linear_306_1172" x1="15.5107" y1="0.712891" x2="15.5107" y2="41.109" gradientUnits="userSpaceOnUse">
<stop stop-color="#009981"/>
<stop offset="1" stop-color="#026757"/>
</linearGradient>
<linearGradient id="paint1_linear_306_1172" x1="40.0725" y1="13.3127" x2="40.0725" y2="41.2871" gradientUnits="userSpaceOnUse">
<stop stop-color="#E4B800"/>
<stop offset="1" stop-color="#7E6600"/>
</linearGradient>
<linearGradient id="paint2_linear_306_1172" x1="24.4607" y1="28.7127" x2="24.4607" y2="41.035" gradientUnits="userSpaceOnUse">
<stop stop-color="#005A92"/>
<stop offset="1" stop-color="#004F81"/>
</linearGradient>
</defs>
</svg>
