<svg width="176" height="42" viewBox="0 0 176 42" fill="none" xmlns="http://www.w3.org/2000/svg">
<path d="M24.5505 1.02764L0.323423 39.1495C-0.401128 40.2896 0.259047 40.9309 0.679703 41.109H9.76484C10.7624 40.9665 11.6056 40.2183 11.9025 39.8621L30.7854 10.2909C31.2129 9.57833 30.9635 8.92516 30.7854 8.68764L26.1537 1.02764C25.5837 0.457596 24.8474 0.790123 24.5505 1.02764Z" fill="url(#paint0_linear_306_1171)"/>
<path d="M51.4503 38.9713L34.8832 13.6755C33.6006 12.8204 32.5674 13.6755 32.2112 14.2099L29.0046 19.9103C28.2921 21.193 28.4702 22.1074 28.6483 22.4043L41.1181 41.2871H50.3814C51.9491 40.717 51.7472 39.5057 51.4503 38.9713Z" fill="url(#paint1_linear_306_1171)"/>
<path d="M25.9309 28.7127C29.3337 28.7127 32.0919 31.4711 32.092 34.8738C32.092 38.2767 29.3337 41.035 25.9309 41.035C24.7795 41.035 23.7025 40.7185 22.7805 40.1688L16.8293 40.0555L19.7991 35.4852C19.7793 35.2842 19.7698 35.08 19.7698 34.8738C19.7699 31.4711 22.5282 28.7127 25.9309 28.7127Z" fill="url(#paint2_linear_306_1171)"/>
<path d="M65.656 14.25V27.75" stroke="black" stroke-width="0.5"/>
<path d="M80.4397 2.57199H83.6831C84.5914 2.57199 85.3068 2.80108 85.8293 3.25926C86.3598 3.70939 86.6251 4.35244 86.6251 5.18841C86.6251 6.04046 86.3638 6.68753 85.8414 7.12963C85.3189 7.56369 84.5995 7.78072 83.6831 7.78072H81.6696V11H80.4397V2.57199ZM83.5505 6.75585C84.1132 6.75585 84.5593 6.6393 84.8888 6.40619C85.2184 6.17309 85.3832 5.76716 85.3832 5.18841C85.3832 4.60967 85.2184 4.20374 84.8888 3.97063C84.5593 3.72949 84.1132 3.60891 83.5505 3.60891H81.6696V6.75585H83.5505ZM88.4161 4.07915C88.2151 4.07915 88.0463 4.01082 87.9097 3.87417C87.773 3.73753 87.7047 3.56872 87.7047 3.36777C87.7047 3.16682 87.773 2.99801 87.9097 2.86137C88.0463 2.72472 88.2151 2.65639 88.4161 2.65639C88.6251 2.65639 88.7979 2.72472 88.9345 2.86137C89.0792 2.99801 89.1515 3.16682 89.1515 3.36777C89.1515 3.56872 89.0792 3.73753 88.9345 3.87417C88.7979 4.01082 88.6251 4.07915 88.4161 4.07915ZM87.8011 5.21253H89.043V11H87.8011V5.21253ZM90.4778 5.21253H91.768L93.468 9.37227L95.1681 5.21253H96.4582L93.9986 11H92.9375L90.4778 5.21253ZM100.045 11.1809C99.3943 11.1809 98.8195 11.0603 98.3212 10.8191C97.8308 10.57 97.445 10.2163 97.1637 9.7581C96.8904 9.29189 96.7537 8.7453 96.7537 8.11832C96.7537 7.49938 96.8904 6.95681 97.1637 6.49059C97.437 6.02438 97.8228 5.66668 98.3212 5.4175C98.8195 5.16028 99.3943 5.03167 100.045 5.03167C100.696 5.03167 101.271 5.16028 101.77 5.4175C102.268 5.66668 102.654 6.02438 102.927 6.49059C103.208 6.95681 103.349 7.49938 103.349 8.11832C103.349 8.7453 103.208 9.29189 102.927 9.7581C102.654 10.2163 102.268 10.57 101.77 10.8191C101.271 11.0603 100.696 11.1809 100.045 11.1809ZM100.045 10.2163C100.672 10.2163 101.171 10.0234 101.54 9.63753C101.91 9.2517 102.095 8.7453 102.095 8.11832C102.095 7.46723 101.91 6.95279 101.54 6.57499C101.171 6.1972 100.672 6.0083 100.045 6.0083C99.4184 6.0083 98.92 6.1972 98.5503 6.57499C98.1805 6.95279 97.9956 7.46723 97.9956 8.11832C97.9956 8.7453 98.1805 9.2517 98.5503 9.63753C98.92 10.0234 99.4184 10.2163 100.045 10.2163ZM106.726 11.1809C106.139 11.1809 105.685 11.0121 105.363 10.6745C105.05 10.3369 104.893 9.85858 104.893 9.23964V6.15299H104.013V5.21253H104.893V3.47629H106.123V5.21253H107.546V6.15299H106.123V9.15524C106.123 9.54107 106.195 9.81437 106.34 9.97514C106.493 10.1359 106.766 10.2163 107.16 10.2163C107.393 10.2163 107.626 10.164 107.859 10.0595V11.0241C107.554 11.1286 107.176 11.1809 106.726 11.1809ZM110.902 11.1809C110.203 11.1809 109.64 11.004 109.214 10.6503C108.796 10.2886 108.587 9.80231 108.587 9.19141C108.587 8.54836 108.788 8.05402 109.19 7.70837C109.6 7.3547 110.179 7.17786 110.926 7.17786C111.722 7.17786 112.397 7.33862 112.952 7.66015V7.35871C112.952 6.90054 112.811 6.56294 112.53 6.34591C112.257 6.12084 111.823 6.0083 111.228 6.0083C110.874 6.0083 110.528 6.04448 110.191 6.11682C109.861 6.18112 109.564 6.27356 109.299 6.39414V5.40544C109.54 5.29291 109.853 5.20449 110.239 5.14018C110.625 5.06784 110.999 5.03167 111.36 5.03167C112.317 5.03167 113.024 5.24468 113.482 5.6707C113.949 6.08869 114.182 6.67145 114.182 7.419V11H113.036V10.3489C112.787 10.6222 112.49 10.8312 112.144 10.9759C111.807 11.1125 111.393 11.1809 110.902 11.1809ZM111.204 10.2525C111.589 10.2525 111.939 10.1761 112.253 10.0234C112.566 9.87064 112.799 9.65763 112.952 9.38433V8.60061C112.429 8.26301 111.847 8.09421 111.204 8.09421C110.737 8.09421 110.388 8.18665 110.155 8.37152C109.93 8.54836 109.817 8.82166 109.817 9.19141C109.817 9.89877 110.279 10.2525 111.204 10.2525ZM115.693 2.0897H116.911V11H115.693V2.0897ZM80.4397 16.572H83.1526C84.0609 16.572 84.8487 16.7408 85.5158 17.0784C86.183 17.416 86.6934 17.8983 87.0471 18.5253C87.4088 19.1522 87.5897 19.8918 87.5897 20.7438C87.5897 22.1424 87.1837 23.2035 86.3719 23.9269C85.5681 24.6423 84.4387 25 82.9838 25H80.4397V16.572ZM82.9717 23.9751C84.0971 23.9751 84.9411 23.6978 85.5038 23.1432C86.0664 22.5886 86.3478 21.7888 86.3478 20.7438C86.3478 19.7792 86.0705 19.0156 85.5158 18.4529C84.9692 17.8903 84.1855 17.6089 83.1647 17.6089H81.6696V23.9751H82.9717ZM92.1006 25.1809C91.0315 25.1809 90.1915 24.9156 89.5806 24.3851C88.9778 23.8465 88.6763 23.0909 88.6763 22.1183C88.6763 21.1698 88.9456 20.4183 89.4842 19.8636C90.0308 19.309 90.8064 19.0317 91.8112 19.0317C92.4784 19.0317 93.0451 19.1603 93.5113 19.4175C93.9775 19.6667 94.3271 20.0163 94.5603 20.4665C94.8014 20.9086 94.922 21.415 94.922 21.9857V22.5886H89.8338C89.874 23.1351 90.1031 23.5451 90.5211 23.8184C90.9471 24.0837 91.5218 24.2163 92.2453 24.2163C92.615 24.2163 92.9888 24.1841 93.3666 24.1198C93.7444 24.0475 94.078 23.955 94.3673 23.8425V24.8191C94.1101 24.9236 93.7685 25.008 93.3425 25.0723C92.9245 25.1447 92.5105 25.1809 92.1006 25.1809ZM93.7765 21.7325C93.7605 21.1859 93.5796 20.7639 93.234 20.4665C92.8964 20.161 92.4141 20.0083 91.7871 20.0083C91.1762 20.0083 90.7019 20.165 90.3643 20.4785C90.0267 20.792 89.8499 21.21 89.8338 21.7325H93.7765ZM95.5292 19.2125H96.8193L98.5194 23.3723L100.219 19.2125H101.51L99.0499 25H97.9888L95.5292 19.2125ZM105.535 25.1809C104.466 25.1809 103.626 24.9156 103.015 24.3851C102.413 23.8465 102.111 23.0909 102.111 22.1183C102.111 21.1698 102.38 20.4183 102.919 19.8636C103.466 19.309 104.241 19.0317 105.246 19.0317C105.913 19.0317 106.48 19.1603 106.946 19.4175C107.412 19.6667 107.762 20.0163 107.995 20.4665C108.236 20.9086 108.357 21.415 108.357 21.9857V22.5886H103.269C103.309 23.1351 103.538 23.5451 103.956 23.8184C104.382 24.0837 104.957 24.2163 105.68 24.2163C106.05 24.2163 106.424 24.1841 106.801 24.1198C107.179 24.0475 107.513 23.955 107.802 23.8425V24.8191C107.545 24.9236 107.203 25.008 106.777 25.0723C106.359 25.1447 105.945 25.1809 105.535 25.1809ZM107.211 21.7325C107.195 21.1859 107.014 20.7639 106.669 20.4665C106.331 20.161 105.849 20.0083 105.222 20.0083C104.611 20.0083 104.137 20.165 103.799 20.4785C103.462 20.792 103.285 21.21 103.269 21.7325H107.211ZM109.688 16.0897H110.906V25H109.688V16.0897ZM115.529 25.1809C114.878 25.1809 114.303 25.0603 113.805 24.8191C113.314 24.57 112.929 24.2163 112.647 23.7581C112.374 23.2919 112.237 22.7453 112.237 22.1183C112.237 21.4994 112.374 20.9568 112.647 20.4906C112.921 20.0244 113.306 19.6667 113.805 19.4175C114.303 19.1603 114.878 19.0317 115.529 19.0317C116.18 19.0317 116.755 19.1603 117.253 19.4175C117.752 19.6667 118.137 20.0244 118.411 20.4906C118.692 20.9568 118.833 21.4994 118.833 22.1183C118.833 22.7453 118.692 23.2919 118.411 23.7581C118.137 24.2163 117.752 24.57 117.253 24.8191C116.755 25.0603 116.18 25.1809 115.529 25.1809ZM115.529 24.2163C116.156 24.2163 116.654 24.0234 117.024 23.6375C117.394 23.2517 117.579 22.7453 117.579 22.1183C117.579 21.4672 117.394 20.9528 117.024 20.575C116.654 20.1972 116.156 20.0083 115.529 20.0083C114.902 20.0083 114.404 20.1972 114.034 20.575C113.664 20.9528 113.479 21.4672 113.479 22.1183C113.479 22.7453 113.664 23.2517 114.034 23.6375C114.404 24.0234 114.902 24.2163 115.529 24.2163ZM120.156 19.2125H121.337V20.0686C121.932 19.3773 122.736 19.0317 123.749 19.0317C124.327 19.0317 124.846 19.1603 125.304 19.4175C125.77 19.6747 126.132 20.0364 126.389 20.5027C126.654 20.9608 126.787 21.4954 126.787 22.1063C126.787 22.7091 126.654 23.2437 126.389 23.7099C126.132 24.1761 125.774 24.5378 125.316 24.795C124.858 25.0522 124.335 25.1809 123.749 25.1809C123.266 25.1809 122.816 25.1005 122.398 24.9397C121.98 24.779 121.639 24.5418 121.373 24.2283V27.6405H120.156V19.2125ZM123.471 24.2163C123.865 24.2163 124.219 24.1319 124.532 23.9631C124.854 23.7862 125.103 23.5371 125.28 23.2155C125.465 22.894 125.557 22.5242 125.557 22.1063C125.557 21.6883 125.465 21.3225 125.28 21.0091C125.103 20.6875 124.854 20.4424 124.532 20.2736C124.219 20.0967 123.865 20.0083 123.471 20.0083C122.981 20.0083 122.547 20.1369 122.169 20.3941C121.799 20.6514 121.534 21.005 121.373 21.4552V22.7574C121.51 23.1995 121.771 23.5531 122.157 23.8184C122.543 24.0837 122.981 24.2163 123.471 24.2163ZM128.115 19.2125H129.273V20.0445C129.546 19.7069 129.856 19.4537 130.201 19.2849C130.547 19.1161 130.904 19.0317 131.274 19.0317C131.74 19.0317 132.11 19.112 132.384 19.2728C132.657 19.4255 132.858 19.6627 132.986 19.9842C133.244 19.6707 133.557 19.4336 133.927 19.2728C134.305 19.112 134.682 19.0317 135.06 19.0317C135.768 19.0317 136.278 19.2125 136.591 19.5742C136.905 19.9279 137.062 20.4544 137.062 21.1537V25H135.88V21.3105C135.88 20.8362 135.792 20.5027 135.615 20.3097C135.438 20.1088 135.137 20.0083 134.711 20.0083C134.1 20.0083 133.601 20.2736 133.215 20.8041C133.232 20.9247 133.24 21.1216 133.24 21.3949V25H132.058V21.3105C132.058 20.8362 131.978 20.5027 131.817 20.3097C131.656 20.1088 131.367 20.0083 130.949 20.0083C130.338 20.0083 129.791 20.3539 129.309 21.0452V25H128.115V19.2125ZM141.754 25.1809C140.685 25.1809 139.845 24.9156 139.234 24.3851C138.631 23.8465 138.33 23.0909 138.33 22.1183C138.33 21.1698 138.599 20.4183 139.138 19.8636C139.684 19.309 140.46 19.0317 141.465 19.0317C142.132 19.0317 142.699 19.1603 143.165 19.4175C143.631 19.6667 143.981 20.0163 144.214 20.4665C144.455 20.9086 144.576 21.415 144.576 21.9857V22.5886H139.487C139.528 23.1351 139.757 23.5451 140.175 23.8184C140.601 24.0837 141.176 24.2163 141.899 24.2163C142.269 24.2163 142.642 24.1841 143.02 24.1198C143.398 24.0475 143.732 23.955 144.021 23.8425V24.8191C143.764 24.9236 143.422 25.008 142.996 25.0723C142.578 25.1447 142.164 25.1809 141.754 25.1809ZM143.43 21.7325C143.414 21.1859 143.233 20.7639 142.888 20.4665C142.55 20.161 142.068 20.0083 141.441 20.0083C140.83 20.0083 140.356 20.165 140.018 20.4785C139.68 20.792 139.504 21.21 139.487 21.7325H143.43ZM145.907 19.2125H147.088V20.0445C147.362 19.6988 147.695 19.4456 148.089 19.2849C148.491 19.1161 148.909 19.0317 149.343 19.0317C150.115 19.0317 150.689 19.2366 151.067 19.6466C151.445 20.0565 151.634 20.6071 151.634 21.2984V25H150.416V21.419C150.416 20.4785 149.966 20.0083 149.066 20.0083C148.68 20.0083 148.318 20.1007 147.981 20.2856C147.651 20.4625 147.366 20.7358 147.125 21.1055V25H145.907V19.2125ZM155.367 25.1809C154.78 25.1809 154.326 25.0121 154.004 24.6745C153.691 24.3369 153.534 23.8586 153.534 23.2396V20.153H152.654V19.2125H153.534V17.4763H154.764V19.2125H156.187V20.153H154.764V23.1552C154.764 23.5411 154.836 23.8144 154.981 23.9751C155.134 24.1359 155.407 24.2163 155.801 24.2163C156.034 24.2163 156.267 24.164 156.5 24.0595V25.0241C156.195 25.1286 155.817 25.1809 155.367 25.1809ZM80.4397 30.572H83.6831C84.5914 30.572 85.3068 30.8011 85.8293 31.2593C86.3598 31.7094 86.6251 32.3524 86.6251 33.1884C86.6251 34.0405 86.3638 34.6875 85.8414 35.1296C85.3189 35.5637 84.5995 35.7807 83.6831 35.7807H81.6696V39H80.4397V30.572ZM83.5505 34.7559C84.1132 34.7559 84.5593 34.6393 84.8888 34.4062C85.2184 34.1731 85.3832 33.7672 85.3832 33.1884C85.3832 32.6097 85.2184 32.2037 84.8888 31.9706C84.5593 31.7295 84.1132 31.6089 83.5505 31.6089H81.6696V34.7559H83.5505ZM89.1191 39.1809C88.4198 39.1809 87.8572 39.004 87.4311 38.6503C87.0131 38.2886 86.8042 37.8023 86.8042 37.1914C86.8042 36.5484 87.0051 36.054 87.407 35.7084C87.817 35.3547 88.3957 35.1779 89.1433 35.1779C89.939 35.1779 90.6142 35.3386 91.1689 35.6601V35.3587C91.1689 34.9005 91.0282 34.5629 90.7469 34.3459C90.4736 34.1208 90.0395 34.0083 89.4447 34.0083C89.091 34.0083 88.7454 34.0445 88.4078 34.1168C88.0782 34.1811 87.7808 34.2736 87.5155 34.3941V33.4054C87.7567 33.2929 88.0702 33.2045 88.456 33.1402C88.8418 33.0678 89.2156 33.0317 89.5773 33.0317C90.5339 33.0317 91.2412 33.2447 91.6994 33.6707C92.1656 34.0887 92.3987 34.6715 92.3987 35.419V39H91.2533V38.3489C91.0041 38.6222 90.7067 38.8312 90.361 38.9759C90.0234 39.1125 89.6095 39.1809 89.1191 39.1809ZM89.4206 38.2525C89.8064 38.2525 90.1561 38.1761 90.4696 38.0234C90.783 37.8706 91.0162 37.6576 91.1689 37.3843V36.6006C90.6464 36.263 90.0636 36.0942 89.4206 36.0942C88.9544 36.0942 88.6047 36.1866 88.3716 36.3715C88.1465 36.5484 88.034 36.8217 88.034 37.1914C88.034 37.8988 88.4962 38.2525 89.4206 38.2525ZM93.9099 33.2125H95.0915V34.2494C95.3327 33.8958 95.6703 33.6345 96.1043 33.4657C96.5464 33.2969 97.0569 33.2125 97.6356 33.2125V34.165C97.0167 34.165 96.4861 34.2655 96.044 34.4665C95.602 34.6674 95.2965 34.9849 95.1277 35.419V39H93.9099V33.2125ZM100.956 39.1809C100.37 39.1809 99.9154 39.0121 99.5939 38.6745C99.2804 38.3369 99.1236 37.8586 99.1236 37.2396V34.153H98.2435V33.2125H99.1236V31.4763H100.353V33.2125H101.776V34.153H100.353V37.1552C100.353 37.5411 100.426 37.8144 100.571 37.9751C100.723 38.1359 100.997 38.2163 101.39 38.2163C101.624 38.2163 101.857 38.164 102.09 38.0595V39.0241C101.784 39.1286 101.406 39.1809 100.956 39.1809ZM103.235 33.2125H104.417V34.0445C104.69 33.6988 105.024 33.4456 105.418 33.2849C105.82 33.1161 106.238 33.0317 106.672 33.0317C107.443 33.0317 108.018 33.2366 108.396 33.6466C108.774 34.0565 108.963 34.6071 108.963 35.2984V39H107.745V35.419C107.745 34.4785 107.295 34.0083 106.394 34.0083C106.009 34.0083 105.647 34.1007 105.309 34.2856C104.98 34.4625 104.694 34.7358 104.453 35.1055V39H103.235V33.2125ZM113.648 39.1809C112.579 39.1809 111.739 38.9156 111.128 38.3851C110.525 37.8465 110.224 37.0909 110.224 36.1183C110.224 35.1698 110.493 34.4183 111.032 33.8636C111.578 33.309 112.354 33.0317 113.359 33.0317C114.026 33.0317 114.593 33.1603 115.059 33.4175C115.525 33.6667 115.875 34.0163 116.108 34.4665C116.349 34.9086 116.47 35.415 116.47 35.9857V36.5886H111.381C111.422 37.1351 111.651 37.5451 112.069 37.8184C112.495 38.0837 113.069 38.2163 113.793 38.2163C114.163 38.2163 114.536 38.1841 114.914 38.1198C115.292 38.0475 115.626 37.955 115.915 37.8425V38.8191C115.658 38.9236 115.316 39.008 114.89 39.0723C114.472 39.1447 114.058 39.1809 113.648 39.1809ZM115.324 35.7325C115.308 35.1859 115.127 34.7639 114.782 34.4665C114.444 34.161 113.962 34.0083 113.335 34.0083C112.724 34.0083 112.25 34.165 111.912 34.4785C111.574 34.792 111.397 35.21 111.381 35.7325H115.324ZM117.801 33.2125H118.982V34.2494C119.223 33.8958 119.561 33.6345 119.995 33.4657C120.437 33.2969 120.948 33.2125 121.526 33.2125V34.165C120.907 34.165 120.377 34.2655 119.935 34.4665C119.493 34.6674 119.187 34.9849 119.018 35.419V39H117.801V33.2125ZM124.574 39.1809C124.172 39.1809 123.746 39.1286 123.296 39.0241C122.846 38.9277 122.492 38.795 122.235 38.6262V37.5893C122.548 37.7742 122.91 37.9269 123.32 38.0475C123.73 38.16 124.128 38.2163 124.514 38.2163C124.948 38.2163 125.265 38.164 125.466 38.0595C125.667 37.955 125.768 37.7862 125.768 37.5531C125.768 37.3763 125.719 37.2356 125.623 37.1311C125.535 37.0186 125.378 36.9181 125.153 36.8297C124.936 36.7413 124.606 36.6368 124.164 36.5162C123.69 36.3796 123.312 36.2429 123.031 36.1063C122.757 35.9616 122.548 35.7807 122.404 35.5637C122.267 35.3467 122.199 35.0653 122.199 34.7197C122.199 34.165 122.416 33.7471 122.85 33.4657C123.292 33.1764 123.883 33.0317 124.622 33.0317C125.008 33.0317 125.386 33.0678 125.756 33.1402C126.125 33.2125 126.423 33.313 126.648 33.4416V34.4544C126.415 34.3178 126.125 34.2093 125.78 34.1289C125.442 34.0485 125.096 34.0083 124.743 34.0083C124.317 34.0083 123.991 34.0606 123.766 34.165C123.541 34.2695 123.429 34.4544 123.429 34.7197C123.429 34.8885 123.477 35.0251 123.573 35.1296C123.67 35.2341 123.822 35.3266 124.031 35.4069C124.248 35.4793 124.59 35.5757 125.056 35.6963C125.788 35.8973 126.294 36.1344 126.576 36.4077C126.865 36.681 127.01 37.0588 127.01 37.5411C127.01 38.0394 126.805 38.4373 126.395 38.7347C125.985 39.0322 125.378 39.1809 124.574 39.1809ZM132.802 30.572H134.031V37.9751H138.3V39H132.802V30.572ZM140.095 32.0791C139.894 32.0791 139.725 32.0108 139.589 31.8742C139.452 31.7375 139.384 31.5687 139.384 31.3678C139.384 31.1668 139.452 30.998 139.589 30.8614C139.725 30.7247 139.894 30.6564 140.095 30.6564C140.304 30.6564 140.477 30.7247 140.613 30.8614C140.758 30.998 140.83 31.1668 140.83 31.3678C140.83 31.5687 140.758 31.7375 140.613 31.8742C140.477 32.0108 140.304 32.0791 140.095 32.0791ZM139.48 33.2125H140.722V39H139.48V33.2125ZM142.398 33.2125H143.555V34.0445C143.829 33.7069 144.138 33.4537 144.484 33.2849C144.829 33.1161 145.187 33.0317 145.557 33.0317C146.023 33.0317 146.393 33.112 146.666 33.2728C146.939 33.4255 147.14 33.6627 147.269 33.9842C147.526 33.6707 147.84 33.4336 148.209 33.2728C148.587 33.112 148.965 33.0317 149.343 33.0317C150.05 33.0317 150.561 33.2125 150.874 33.5742C151.188 33.9279 151.344 34.4544 151.344 35.1537V39H150.163V35.3105C150.163 34.8362 150.074 34.5027 149.897 34.3097C149.721 34.1088 149.419 34.0083 148.993 34.0083C148.382 34.0083 147.884 34.2736 147.498 34.8041C147.514 34.9247 147.522 35.1216 147.522 35.3949V39H146.341V35.3105C146.341 34.8362 146.26 34.5027 146.099 34.3097C145.939 34.1088 145.649 34.0083 145.231 34.0083C144.62 34.0083 144.074 34.3539 143.592 35.0452V39H142.398V33.2125ZM153.565 32.0791C153.364 32.0791 153.195 32.0108 153.059 31.8742C152.922 31.7375 152.854 31.5687 152.854 31.3678C152.854 31.1668 152.922 30.998 153.059 30.8614C153.195 30.7247 153.364 30.6564 153.565 30.6564C153.774 30.6564 153.947 30.7247 154.084 30.8614C154.228 30.998 154.301 31.1668 154.301 31.3678C154.301 31.5687 154.228 31.7375 154.084 31.8742C153.947 32.0108 153.774 32.0791 153.565 32.0791ZM152.95 33.2125H154.192V39H152.95V33.2125ZM158.099 39.1809C157.512 39.1809 157.058 39.0121 156.736 38.6745C156.423 38.3369 156.266 37.8586 156.266 37.2396V34.153H155.386V33.2125H156.266V31.4763H157.496V33.2125H158.919V34.153H157.496V37.1552C157.496 37.5411 157.568 37.8144 157.713 37.9751C157.866 38.1359 158.139 38.2163 158.533 38.2163C158.766 38.2163 158.999 38.164 159.232 38.0595V39.0241C158.927 39.1286 158.549 39.1809 158.099 39.1809ZM163.561 39.1809C162.492 39.1809 161.652 38.9156 161.041 38.3851C160.438 37.8465 160.137 37.0909 160.137 36.1183C160.137 35.1698 160.406 34.4183 160.944 33.8636C161.491 33.309 162.267 33.0317 163.272 33.0317C163.939 33.0317 164.505 33.1603 164.972 33.4175C165.438 33.6667 165.787 34.0163 166.021 34.4665C166.262 34.9086 166.382 35.415 166.382 35.9857V36.5886H161.294C161.334 37.1351 161.563 37.5451 161.981 37.8184C162.407 38.0837 162.982 38.2163 163.706 38.2163C164.075 38.2163 164.449 38.1841 164.827 38.1198C165.205 38.0475 165.538 37.955 165.828 37.8425V38.8191C165.57 38.9236 165.229 39.008 164.803 39.0723C164.385 39.1447 163.971 39.1809 163.561 39.1809ZM165.237 35.7325C165.221 35.1859 165.04 34.7639 164.694 34.4665C164.357 34.161 163.874 34.0083 163.247 34.0083C162.636 34.0083 162.162 34.165 161.825 34.4785C161.487 34.792 161.31 35.21 161.294 35.7325H165.237ZM170.511 39.1809C169.932 39.1809 169.409 39.0563 168.943 38.8071C168.485 38.5499 168.123 38.1922 167.858 37.734C167.601 37.2678 167.472 36.7292 167.472 36.1183C167.472 35.5155 167.601 34.9809 167.858 34.5147C168.123 34.0485 168.485 33.6868 168.943 33.4296C169.409 33.1643 169.932 33.0317 170.511 33.0317C171.556 33.0317 172.347 33.3492 172.886 33.9842V30.0897H174.104V39H172.922V38.156C172.601 38.5097 172.247 38.7709 171.861 38.9397C171.483 39.1005 171.033 39.1809 170.511 39.1809ZM170.788 38.2163C171.286 38.2163 171.72 38.0877 172.09 37.8304C172.468 37.5652 172.733 37.2115 172.886 36.7694V35.4672C172.749 35.0251 172.488 34.6715 172.102 34.4062C171.724 34.1409 171.286 34.0083 170.788 34.0083C170.394 34.0083 170.036 34.0967 169.715 34.2736C169.401 34.4504 169.152 34.6996 168.967 35.0211C168.79 35.3426 168.702 35.7084 168.702 36.1183C168.702 36.5283 168.79 36.894 168.967 37.2155C169.152 37.5371 169.401 37.7862 169.715 37.9631C170.036 38.1319 170.394 38.2163 170.788 38.2163Z" fill="black"/>
<defs>
<linearGradient id="paint0_linear_306_1171" x1="15.5107" y1="0.712891" x2="15.5107" y2="41.109" gradientUnits="userSpaceOnUse">
<stop stop-color="#009981"/>
<stop offset="1" stop-color="#026757"/>
</linearGradient>
<linearGradient id="paint1_linear_306_1171" x1="40.0725" y1="13.3127" x2="40.0725" y2="41.2871" gradientUnits="userSpaceOnUse">
<stop stop-color="#E4B800"/>
<stop offset="1" stop-color="#7E6600"/>
</linearGradient>
<linearGradient id="paint2_linear_306_1171" x1="24.4607" y1="28.7127" x2="24.4607" y2="41.035" gradientUnits="userSpaceOnUse">
<stop stop-color="#005A92"/>
<stop offset="1" stop-color="#004F81"/>
</linearGradient>
</defs>
</svg>
