<svg width="26" height="26" viewBox="0 0 26 26" fill="none" xmlns="http://www.w3.org/2000/svg">
<path d="M8.48362 18.3055V17.6958C8.48362 16.9181 8.87246 16.2951 9.65014 15.8267C10.4278 15.3583 11.4529 15.1241 12.7255 15.1241C13.9981 15.1241 15.0232 15.3583 15.8009 15.8267C16.5786 16.2951 16.9674 16.9181 16.9674 17.6958V18.3055H8.48362ZM12.7255 14.0637C12.1423 14.0637 11.643 13.856 11.2276 13.4406C10.8122 13.0253 10.6046 12.526 10.6046 11.9427C10.6046 11.3594 10.8122 10.8601 11.2276 10.4448C11.643 10.0294 12.1423 9.82176 12.7255 9.82176C13.3088 9.82176 13.8081 10.0294 14.2234 10.4448C14.6388 10.8601 14.8465 11.3594 14.8465 11.9427C14.8465 12.526 14.6388 13.0253 14.2234 13.4406C13.8081 13.856 13.3088 14.0637 12.7255 14.0637ZM3.18125 10.0339V18.1465C3.42869 18.3762 3.72916 18.5751 4.08265 18.743C4.43615 18.9109 4.84266 19.039 5.3022 19.1274V10.7232C4.91336 10.6348 4.53777 10.5332 4.17545 10.4183C3.81312 10.3034 3.48172 10.1752 3.18125 10.0339ZM22.2698 10.0073C21.9693 10.1487 21.6423 10.2769 21.2888 10.3918C20.9354 10.5066 20.5554 10.6083 20.1488 10.6966V19.1274C20.6084 19.039 21.0149 18.9109 21.3684 18.743C21.7219 18.5751 22.0223 18.3762 22.2698 18.1465V10.0073ZM7.42315 21.646C5.39057 21.3986 3.82195 20.9832 2.71729 20.4C1.61263 19.8167 1.0603 19.1186 1.0603 18.3055V7.70081C1.0603 6.69336 2.06333 5.91568 4.0694 5.36777C6.07546 4.81985 8.96083 4.5459 12.7255 4.5459C16.4902 4.5459 19.3756 4.81985 21.3816 5.36777C23.3877 5.91568 24.3907 6.69336 24.3907 7.70081V18.3055C24.3907 19.1186 23.8384 19.8167 22.7337 20.4C21.6291 20.9832 20.0605 21.3986 18.0279 21.646V8.92035C18.9293 8.77896 19.7291 8.60663 20.4272 8.40337C21.1254 8.20011 21.6247 8.00128 21.9251 7.80686C21.1651 7.50639 19.866 7.23685 18.0279 6.99824C16.1897 6.75964 14.4223 6.64033 12.7255 6.64033C11.0288 6.64033 9.2613 6.75964 7.42315 6.99824C5.58499 7.23685 4.28591 7.50639 3.52591 7.80686C3.82637 8.01895 4.32568 8.22221 5.02382 8.41663C5.72197 8.61105 6.52174 8.77896 7.42315 8.92035V21.646Z" fill="#064C3C"/>
</svg>
