<svg width="1680" height="951" viewBox="0 0 1680 951" fill="none" xmlns="http://www.w3.org/2000/svg">
<rect x="1" y="-1" width="130" height="949" transform="matrix(1 0 0 -1 -2 949)" fill="url(#paint0_linear_403_1107)" stroke="url(#paint1_linear_403_1107)" stroke-width="2"/>
<rect x="1" y="-1" width="130" height="949" transform="matrix(1 0 0 -1 143 949)" fill="url(#paint2_linear_403_1107)" stroke="url(#paint3_linear_403_1107)" stroke-width="2"/>
<rect x="1" y="-1" width="130" height="949" transform="matrix(1 0 0 -1 288 949)" fill="url(#paint4_linear_403_1107)" stroke="url(#paint5_linear_403_1107)" stroke-width="2"/>
<rect x="1" y="-1" width="130" height="949" transform="matrix(1 0 0 -1 433 949)" fill="url(#paint6_linear_403_1107)" stroke="url(#paint7_linear_403_1107)" stroke-width="2"/>
<rect x="1" y="-1" width="130" height="949" transform="matrix(1 0 0 -1 578 949)" fill="url(#paint8_linear_403_1107)" stroke="url(#paint9_linear_403_1107)" stroke-width="2"/>
<rect x="1" y="-1" width="130" height="949" transform="matrix(1 0 0 -1 723 949)" fill="url(#paint10_linear_403_1107)" stroke="url(#paint11_linear_403_1107)" stroke-width="2"/>
<rect x="1" y="-1" width="130" height="949" transform="matrix(1 0 0 -1 868 949)" fill="url(#paint12_linear_403_1107)" stroke="url(#paint13_linear_403_1107)" stroke-width="2"/>
<rect x="1" y="-1" width="130" height="949" transform="matrix(1 0 0 -1 1013 949)" fill="url(#paint14_linear_403_1107)" stroke="url(#paint15_linear_403_1107)" stroke-width="2"/>
<rect x="1" y="-1" width="130" height="949" transform="matrix(1 0 0 -1 1158 949)" fill="url(#paint16_linear_403_1107)" stroke="url(#paint17_linear_403_1107)" stroke-width="2"/>
<rect x="1" y="-1" width="130" height="949" transform="matrix(1 0 0 -1 1303 949)" fill="url(#paint18_linear_403_1107)" stroke="url(#paint19_linear_403_1107)" stroke-width="2"/>
<rect x="1" y="-1" width="130" height="949" transform="matrix(1 0 0 -1 1448 949)" fill="url(#paint20_linear_403_1107)" stroke="url(#paint21_linear_403_1107)" stroke-width="2"/>
<rect x="1" y="-1" width="130" height="949" transform="matrix(1 0 0 -1 1593 949)" fill="url(#paint22_linear_403_1107)" stroke="url(#paint23_linear_403_1107)" stroke-width="2"/>
<defs>
<linearGradient id="paint0_linear_403_1107" x1="66" y1="0" x2="66" y2="951" gradientUnits="userSpaceOnUse">
<stop stop-color="white" stop-opacity="0"/>
<stop offset="1" stop-color="white"/>
</linearGradient>
<linearGradient id="paint1_linear_403_1107" x1="66" y1="0" x2="66" y2="951" gradientUnits="userSpaceOnUse">
<stop offset="0.153846" stop-color="#005A92"/>
<stop offset="1" stop-color="#005A92" stop-opacity="0"/>
</linearGradient>
<linearGradient id="paint2_linear_403_1107" x1="66" y1="0" x2="66" y2="951" gradientUnits="userSpaceOnUse">
<stop stop-color="white" stop-opacity="0"/>
<stop offset="1" stop-color="white"/>
</linearGradient>
<linearGradient id="paint3_linear_403_1107" x1="66" y1="0" x2="66" y2="951" gradientUnits="userSpaceOnUse">
<stop offset="0.153846" stop-color="#005A92"/>
<stop offset="1" stop-color="#005A92" stop-opacity="0"/>
</linearGradient>
<linearGradient id="paint4_linear_403_1107" x1="66" y1="0" x2="66" y2="951" gradientUnits="userSpaceOnUse">
<stop stop-color="white" stop-opacity="0"/>
<stop offset="1" stop-color="white"/>
</linearGradient>
<linearGradient id="paint5_linear_403_1107" x1="66" y1="0" x2="66" y2="951" gradientUnits="userSpaceOnUse">
<stop offset="0.153846" stop-color="#005A92"/>
<stop offset="1" stop-color="#005A92" stop-opacity="0"/>
</linearGradient>
<linearGradient id="paint6_linear_403_1107" x1="66" y1="0" x2="66" y2="951" gradientUnits="userSpaceOnUse">
<stop stop-color="white" stop-opacity="0"/>
<stop offset="1" stop-color="white"/>
</linearGradient>
<linearGradient id="paint7_linear_403_1107" x1="66" y1="0" x2="66" y2="951" gradientUnits="userSpaceOnUse">
<stop offset="0.153846" stop-color="#005A92"/>
<stop offset="1" stop-color="#005A92" stop-opacity="0"/>
</linearGradient>
<linearGradient id="paint8_linear_403_1107" x1="66" y1="0" x2="66" y2="951" gradientUnits="userSpaceOnUse">
<stop stop-color="white" stop-opacity="0"/>
<stop offset="1" stop-color="white"/>
</linearGradient>
<linearGradient id="paint9_linear_403_1107" x1="66" y1="0" x2="66" y2="951" gradientUnits="userSpaceOnUse">
<stop offset="0.153846" stop-color="#005A92"/>
<stop offset="1" stop-color="#005A92" stop-opacity="0"/>
</linearGradient>
<linearGradient id="paint10_linear_403_1107" x1="66" y1="0" x2="66" y2="951" gradientUnits="userSpaceOnUse">
<stop stop-color="white" stop-opacity="0"/>
<stop offset="1" stop-color="white"/>
</linearGradient>
<linearGradient id="paint11_linear_403_1107" x1="66" y1="0" x2="66" y2="951" gradientUnits="userSpaceOnUse">
<stop offset="0.153846" stop-color="#005A92"/>
<stop offset="1" stop-color="#005A92" stop-opacity="0"/>
</linearGradient>
<linearGradient id="paint12_linear_403_1107" x1="66" y1="0" x2="66" y2="951" gradientUnits="userSpaceOnUse">
<stop stop-color="white" stop-opacity="0"/>
<stop offset="1" stop-color="white"/>
</linearGradient>
<linearGradient id="paint13_linear_403_1107" x1="66" y1="0" x2="66" y2="951" gradientUnits="userSpaceOnUse">
<stop offset="0.153846" stop-color="#005A92"/>
<stop offset="1" stop-color="#005A92" stop-opacity="0"/>
</linearGradient>
<linearGradient id="paint14_linear_403_1107" x1="66" y1="0" x2="66" y2="951" gradientUnits="userSpaceOnUse">
<stop stop-color="white" stop-opacity="0"/>
<stop offset="1" stop-color="white"/>
</linearGradient>
<linearGradient id="paint15_linear_403_1107" x1="66" y1="0" x2="66" y2="951" gradientUnits="userSpaceOnUse">
<stop offset="0.153846" stop-color="#005A92"/>
<stop offset="1" stop-color="#005A92" stop-opacity="0"/>
</linearGradient>
<linearGradient id="paint16_linear_403_1107" x1="66" y1="0" x2="66" y2="951" gradientUnits="userSpaceOnUse">
<stop stop-color="white" stop-opacity="0"/>
<stop offset="1" stop-color="white"/>
</linearGradient>
<linearGradient id="paint17_linear_403_1107" x1="66" y1="0" x2="66" y2="951" gradientUnits="userSpaceOnUse">
<stop offset="0.153846" stop-color="#005A92"/>
<stop offset="1" stop-color="#005A92" stop-opacity="0"/>
</linearGradient>
<linearGradient id="paint18_linear_403_1107" x1="66" y1="0" x2="66" y2="951" gradientUnits="userSpaceOnUse">
<stop stop-color="white" stop-opacity="0"/>
<stop offset="1" stop-color="white"/>
</linearGradient>
<linearGradient id="paint19_linear_403_1107" x1="66" y1="0" x2="66" y2="951" gradientUnits="userSpaceOnUse">
<stop offset="0.153846" stop-color="#005A92"/>
<stop offset="1" stop-color="#005A92" stop-opacity="0"/>
</linearGradient>
<linearGradient id="paint20_linear_403_1107" x1="66" y1="0" x2="66" y2="951" gradientUnits="userSpaceOnUse">
<stop stop-color="white" stop-opacity="0"/>
<stop offset="1" stop-color="white"/>
</linearGradient>
<linearGradient id="paint21_linear_403_1107" x1="66" y1="0" x2="66" y2="951" gradientUnits="userSpaceOnUse">
<stop offset="0.153846" stop-color="#005A92"/>
<stop offset="1" stop-color="#005A92" stop-opacity="0"/>
</linearGradient>
<linearGradient id="paint22_linear_403_1107" x1="66" y1="0" x2="66" y2="951" gradientUnits="userSpaceOnUse">
<stop stop-color="white" stop-opacity="0"/>
<stop offset="1" stop-color="white"/>
</linearGradient>
<linearGradient id="paint23_linear_403_1107" x1="66" y1="0" x2="66" y2="951" gradientUnits="userSpaceOnUse">
<stop offset="0.153846" stop-color="#005A92"/>
<stop offset="1" stop-color="#005A92" stop-opacity="0"/>
</linearGradient>
</defs>
</svg>
